<?xml version="1.0" encoding="UTF-8"?>
<svg id="Layer_2" data-name="Layer 2" xmlns="http://www.w3.org/2000/svg" viewBox="0 0 1366.14 309.52">
  <defs>
    <style>
      .cls-1 {
        fill: aqua;
      }

      .cls-2 {
        fill: #fff;
      }
    </style>
  </defs>
  <g id="Layer_1-2" data-name="Layer 1">
    <g>
      <g>
        <path class="cls-2" d="m425,230.18c-15.44,0-29.07-5.9-40.91-17.71-11.84-11.81-17.76-25.94-17.76-42.41s5.92-30.6,17.76-42.4c11.84-11.81,26.01-17.71,42.52-17.71s30.72,5.87,42.63,17.61c11.91,11.74,17.87,25.91,17.87,42.51v59.69c0,14.89-6.08,27.27-18.25,37.14-12.17,9.88-25.84,14.82-41.01,14.82-18.18,0-31.44-4.3-39.78-12.89-8.34-8.59-13.94-15.52-16.8-20.77-1.15-1.65-1.72-3.86-1.72-6.62s1.05-5.19,3.16-7.27c2.1-2.09,4.51-3.13,7.22-3.13s4.76.49,6.15,1.49c1.39.99,5.04,5.64,10.97,13.96,5.92,8.32,16.12,12.48,30.6,12.48,11.55,0,21.33-4,29.32-11.99,4.92-5.99,7.38-11.81,7.38-17.44v-12.73c-10.79,8.93-23.91,13.39-39.34,13.39Zm-24.92-86.46c-7.33,7.34-10.99,16.12-10.99,26.34s3.64,19,10.93,26.34c7.29,7.34,16.15,11.02,26.59,11.02s19.33-3.69,26.69-11.07c7.36-7.38,11.04-16.14,11.04-26.29s-3.66-18.91-10.99-26.29c-7.33-7.38-16.2-11.07-26.64-11.07s-19.32,3.67-26.64,11.02Z"/>
        <path class="cls-2" d="m526.07,123.45c11.04-9,23.36-13.5,36.97-13.5s22.19,1.75,25.75,5.26c3.56,3.51,5.34,6.41,5.34,8.7,0,3.79-1.07,6.8-3.21,9.02-2.14,2.22-4.35,3.33-6.63,3.33s-4.99-.59-8.12-1.77c-3.13-1.18-7.34-1.77-12.61-1.77-10.4,0-19.25,3.66-26.55,10.97-7.3,7.31-10.95,16.18-10.95,26.59v48.79c0,3.07-1.11,5.69-3.32,7.86-2.21,2.18-4.92,3.26-8.11,3.26s-5.88-1.09-8.06-3.27c-2.18-2.18-3.27-4.81-3.27-7.89v-97.91c0-3.08,1.09-5.71,3.27-7.89,2.18-2.18,4.86-3.27,8.06-3.27s5.9,1.11,8.11,3.32,3.32,4.88,3.32,8v2.18Z"/>
        <path class="cls-2" d="m649.59,230.18c-16.68,0-30.91-5.9-42.7-17.71-11.79-11.81-17.68-25.94-17.68-42.41s5.92-30.6,17.76-42.4c11.84-11.81,26.01-17.71,42.52-17.71s30.72,5.87,42.63,17.61c11.91,11.74,17.87,25.91,17.87,42.51v48.95c0,3.08-1.09,5.71-3.27,7.89-2.18,2.18-4.86,3.27-8.06,3.27s-5.9-1.11-8.11-3.32c-2.21-2.21-3.32-4.88-3.32-8v-2.18c-11.08,9-23.62,13.5-37.63,13.5Zm-26.64-86.46c-7.33,7.34-10.99,16.12-10.99,26.34s3.64,19,10.93,26.34c7.29,7.34,16.15,11.02,26.59,11.02s19.33-3.69,26.69-11.07c7.36-7.38,11.04-16.14,11.04-26.29s-3.66-18.91-10.99-26.29c-7.33-7.38-16.2-11.07-26.64-11.07s-19.32,3.67-26.64,11.02Z"/>
        <path class="cls-2" d="m753.78,270.51c0,3.23-1.11,5.9-3.32,8.02-2.21,2.12-4.92,3.18-8.11,3.18s-5.88-1.06-8.06-3.17c-2.18-2.11-3.27-4.78-3.27-8v-100.48c0-16.6,5.92-30.77,17.76-42.51,11.84-11.74,26.01-17.61,42.52-17.61s30.72,5.87,42.63,17.61c11.91,11.74,17.87,25.91,17.87,42.51s-5.93,30.77-17.79,42.51c-11.86,11.74-25.52,17.61-40.98,17.61s-28.52-4.46-39.24-13.39v53.73Zm10.93-126.79c-7.29,7.34-10.93,16.12-10.93,26.34s3.64,19,10.93,26.34c7.29,7.34,16.15,11.02,26.59,11.02s19.33-3.69,26.69-11.07c7.36-7.38,11.04-16.14,11.04-26.29s-3.66-18.91-10.99-26.29c-7.33-7.38-16.24-11.07-26.75-11.07s-19.3,3.67-26.59,11.02Z"/>
        <path class="cls-2" d="m886.69,218.91c0,3.15-1.09,5.82-3.27,8-2.18,2.18-4.86,3.27-8.06,3.27s-5.9-1.09-8.11-3.27c-2.21-2.18-3.32-4.85-3.32-8V69.69c0-3.15,1.11-5.81,3.32-8,2.21-2.18,4.88-3.27,8-3.27s5.79,1.09,8,3.27c2.21,2.18,3.36,4.84,3.43,7.98v51.4c9.5-7.48,21.22-11.22,35.16-11.22s26.53,5.47,37.8,16.41c11.27,10.94,16.9,24.2,16.9,39.78v52.85c-.07,3.16-1.22,5.83-3.43,8.02-2.21,2.19-4.88,3.28-8,3.28s-5.79-1.09-8-3.27c-2.21-2.18-3.32-4.85-3.32-8v-52.71c0-9.16-3.32-17.05-9.97-23.67-6.65-6.62-14.54-9.93-23.69-9.93s-17.01,3.29-23.58,9.88c-6.57,6.59-9.86,14.49-9.86,23.73v52.71Z"/>
        <path class="cls-2" d="m1087.93,199.58c2.11,2.08,3.17,4.69,3.17,7.84s-1.07,5.87-3.22,8.16c-11.02,9.73-24.48,14.6-40.37,14.6s-29.7-5.86-41.44-17.59c-11.74-11.72-17.61-25.87-17.61-42.43s5.87-30.74,17.61-42.53c11.74-11.79,25.87-17.69,42.4-17.69s30.7,5.85,42.51,17.56c11.81,11.71,17.71,25.97,17.71,42.77,0,3.28-1.09,6-3.28,8.15-2.18,2.15-4.85,3.23-8,3.23h-85.02c2.43,7.65,6.99,13.86,13.69,18.62,6.69,4.76,14.44,7.15,23.24,7.15s16.46-2.78,23.19-8.34c2.15-1.74,4.72-2.61,7.73-2.61s5.56,1.04,7.68,3.11Zm-39.35-66.88c-8.23,0-15.75,2.42-22.54,7.26-6.8,4.84-11.34,11.15-13.63,18.93h72.36c-2.43-7.71-7.02-14-13.74-18.88-6.73-4.88-14.21-7.32-22.44-7.32Z"/>
        <path class="cls-2" d="m1233.99,165.98v52.93c0,3.15-1.11,5.82-3.32,8-2.21,2.18-4.92,3.27-8.11,3.27s-5.88-1.09-8.06-3.26c-2.18-2.18-3.27-4.83-3.27-7.97v-52.75c0-9.13-3.32-16.99-9.97-23.59-6.65-6.6-14.54-9.9-23.69-9.9s-17.01,3.28-23.58,9.84c-6.57,6.56-9.86,14.44-9.86,23.65v52.75c0,3.14-1.09,5.8-3.27,7.97-2.18,2.18-4.86,3.26-8.06,3.26s-5.9-1.09-8.11-3.27c-2.21-2.18-3.32-4.85-3.32-8v-97.69c0-3.08,1.11-5.72,3.32-7.94,2.21-2.22,4.92-3.33,8.11-3.33s5.88,1.13,8.06,3.38c2.18,2.25,3.27,4.87,3.27,7.84,9.5-7.48,21.22-11.22,35.16-11.22s26.53,5.46,37.8,16.37c11.27,10.91,16.9,24.14,16.9,39.67Z"/>
        <path class="cls-2" d="m1345.37,199.58c2.11,2.08,3.17,4.69,3.17,7.84s-1.07,5.87-3.22,8.16c-11.02,9.73-24.48,14.6-40.37,14.6s-29.7-5.86-41.44-17.59c-11.74-11.72-17.61-25.87-17.61-42.43s5.87-30.74,17.61-42.53c11.74-11.79,25.87-17.69,42.4-17.69s30.7,5.85,42.51,17.56c11.81,11.71,17.71,25.97,17.71,42.77,0,3.28-1.09,6-3.28,8.15-2.18,2.15-4.85,3.23-8,3.23h-85.02c2.43,7.65,6.99,13.86,13.69,18.62,6.69,4.76,14.44,7.15,23.24,7.15s16.46-2.78,23.19-8.34c2.15-1.74,4.72-2.61,7.73-2.61s5.56,1.04,7.68,3.11Zm-39.35-66.88c-8.23,0-15.75,2.42-22.54,7.26-6.8,4.84-11.34,11.15-13.63,18.93h72.36c-2.43-7.71-7.02-14-13.74-18.88-6.73-4.88-14.21-7.32-22.44-7.32Z"/>
      </g>
      <path class="cls-1" d="m133.3,96.77l51.53-29.75c9.99-5.77,22.29-5.77,32.28,0l51.53,29.75c3.15,1.82,5.92,4.13,8.24,6.8v-9.71c0-11.77-6.28-22.65-16.47-28.53L154.91,4.41c-10.19-5.89-22.75-5.89-32.95,0L16.47,65.32C6.28,71.21,0,82.08,0,93.85v121.82c0,11.77,6.28,22.65,16.47,28.53l105.5,60.91c10.19,5.89,22.75,5.89,32.95,0l82.88-47.85,22.61-13.06c10.19-5.89,16.47-16.76,16.47-28.53v-37.71c0-5.54-2.96-10.66-7.76-13.44l-24.77-14.3c-4.8-2.77-10.71-2.77-15.51,0l-24.77,14.3c-2.4,1.38-4.33,3.35-5.67,5.67l4.24-2.45c4.26-2.46,9.5-2.46,13.76,0l21.96,12.68c4.26,2.46,6.88,7,6.88,11.91v25.36c0,4.91-2.62,9.46-6.88,11.91l-8.76,5.06s.03.02.05.02l-12.55,7.24c-9.99,5.77-22.29,5.77-32.28,0l-4.95-2.86-46.58-26.9c-9.99-5.77-16.14-16.42-16.14-27.96v-59.51c0-11.53,6.15-22.19,16.14-27.96Z"/>
    </g>
  </g>
</svg>